<svg width="21" height="18" viewBox="0 0 21 18" fill="none" xmlns="http://www.w3.org/2000/svg">
<path fill-rule="evenodd" clip-rule="evenodd" d="M14.251 9.68752L20.3035 15.9591C20.3762 16.0334 20.434 16.1217 20.4738 16.2191C20.5135 16.3165 20.5343 16.4211 20.535 16.5268C20.5357 16.6325 20.5163 16.7374 20.4779 16.8354C20.4395 16.9333 20.3828 17.0225 20.3111 17.0978L19.8671 17.5563C19.7422 17.6919 19.5773 17.7803 19.3986 17.8078C19.2804 17.8241 19.1603 17.8119 19.0475 17.7721C18.9347 17.7323 18.8324 17.6661 18.7484 17.5785L11.3574 9.92C11.2288 9.78701 11.127 9.62917 11.0574 9.45539C10.9878 9.28161 10.952 9.09526 10.952 8.9071C10.952 8.71895 10.9878 8.53265 11.0574 8.35885C11.127 8.18505 11.2288 8.02718 11.3574 7.89425L18.7484 0.235746C18.8204 0.161013 18.9059 0.101722 19.0001 0.0612699C19.0942 0.0208177 19.1951 0 19.297 0C19.3989 0 19.4998 0.0208177 19.594 0.0612699C19.6881 0.101722 19.7736 0.161013 19.8457 0.235746L20.3035 0.718058C20.3756 0.792671 20.4328 0.881282 20.4719 0.978835C20.511 1.07638 20.531 1.18094 20.531 1.28655C20.531 1.39216 20.511 1.49672 20.4719 1.59427C20.4328 1.69182 20.3756 1.78044 20.3035 1.85506L14.251 8.12829C14.0524 8.33562 13.941 8.61584 13.941 8.90794C13.941 9.19993 14.0524 9.48015 14.251 9.68752ZM6.28383 8.13495L0.233567 1.86164C0.160152 1.78732 0.101702 1.69865 0.0616095 1.60074C0.0215169 1.50284 0.000579524 1.39765 1.18604e-05 1.29129C-0.000555803 1.18493 0.019259 1.07951 0.0583041 0.981142C0.0973497 0.882785 0.154851 0.793447 0.227468 0.718304L0.669873 0.258118C0.795857 0.12344 0.960852 0.0351483 1.13974 0.00668447C1.25776 -0.00916599 1.37773 0.00326195 1.49039 0.0430144C1.60306 0.0827669 1.70543 0.148777 1.78961 0.235976L9.17774 7.89459C9.30624 8.02752 9.40813 8.18539 9.47771 8.35919C9.54721 8.53299 9.58298 8.7193 9.58298 8.9075C9.58298 9.09562 9.54721 9.28187 9.47771 9.45575C9.40813 9.62953 9.30624 9.78737 9.17774 9.92036L1.78961 17.5789C1.7175 17.6537 1.63189 17.713 1.53765 17.7535C1.44342 17.794 1.34242 17.8148 1.24042 17.8148C1.13842 17.8148 1.03741 17.794 0.943188 17.7535C0.848954 17.713 0.763336 17.6537 0.691227 17.5789L0.233567 17.1045C0.161425 17.0298 0.104197 16.941 0.0651525 16.8434C0.0261075 16.7457 0.00601287 16.641 0.00601287 16.5352C0.00601287 16.4294 0.0261075 16.3248 0.0651525 16.2271C0.104197 16.1294 0.161425 16.0406 0.233567 15.9659L6.28383 9.6942C6.48226 9.48683 6.59361 9.20661 6.59361 8.91453C6.59361 8.62251 6.48226 8.34229 6.28383 8.13495Z" fill="black"/>
</svg>
