<svg width="19" height="19" viewBox="0 0 19 19" fill="none" xmlns="http://www.w3.org/2000/svg">
<path d="M3.74649 18.5129C2.50441 18.5129 1.25558 18.5129 0 18.5129C0.425278 12.6753 1.08345 6.83765 1.9745 1C2.98032 1 3.97938 1 4.9717 1C5.802 1 6.49054 1.34941 7.04746 2.04824C7.62462 2.74706 8.06002 3.75294 8.38404 5.05529C8.71819 6.35765 8.89033 7.92471 8.8802 9.73529C8.8802 11.5671 8.67769 13.1341 8.27266 14.4471C7.85751 15.7494 7.28035 16.7659 6.5108 17.4647C5.74125 18.1635 4.80969 18.5129 3.74649 18.5129ZM2.3694 15.3365C2.84193 15.3365 3.30771 15.3365 3.76674 15.3365C4.41479 15.3365 4.96157 15.1459 5.4071 14.7647C5.86275 14.3624 6.20703 13.7588 6.43992 12.9435C6.68293 12.1071 6.81457 11.0482 6.85507 9.73529C6.9057 8.44353 6.84494 7.38471 6.68293 6.56941C6.52092 5.74353 6.26778 5.14 5.91338 4.75882C5.55898 4.36706 5.11346 4.17647 4.56667 4.17647C4.16164 4.17647 3.75662 4.17647 3.35159 4.17647C2.95332 7.89647 2.62592 11.6165 2.3694 15.3365Z" fill="#090FAF"/>
<path d="M14.9758 6.27294C14.8543 5.58471 14.6417 5.04471 14.3278 4.66353C14.0139 4.28235 13.6493 4.09176 13.2038 4.09176C12.9 4.09176 12.657 4.17647 12.4646 4.34588C12.2723 4.51529 12.1204 4.73765 12.0292 5.03412C11.9381 5.33059 11.9077 5.66941 11.928 6.05059C11.9381 6.35765 11.9887 6.63294 12.09 6.86588C12.1811 7.09882 12.2925 7.31059 12.4444 7.48C12.5862 7.63882 12.7583 7.78706 12.9507 7.91412C13.1329 8.03059 13.3354 8.13647 13.5481 8.22118C13.8451 8.34824 14.1455 8.47177 14.4493 8.59177C14.8847 8.77177 15.2998 8.99412 15.6745 9.28C16.0694 9.56588 16.4339 9.9153 16.7478 10.3282C17.0718 10.7518 17.3351 11.2388 17.5477 11.8C17.7604 12.3718 17.9021 13.0176 17.973 13.7482C18.054 14.8176 17.9527 15.7494 17.6692 16.5329C17.3857 17.3165 16.9402 17.92 16.3428 18.3541C15.7454 18.7776 15.0163 19 14.1658 19C13.3152 19 12.5659 18.7776 11.928 18.3435C11.3103 17.9094 10.8142 17.2741 10.4598 16.4165C10.1054 15.5694 9.91298 14.5106 9.87247 13.2506C10.5543 13.2506 11.2361 13.2506 11.9179 13.2506C11.9584 13.8329 12.0799 14.3306 12.2723 14.7224C12.4545 15.1035 12.6975 15.4 13.0013 15.6012C13.3152 15.7918 13.6493 15.8871 14.024 15.8871C14.3986 15.8871 14.7125 15.8024 14.9758 15.6224C15.2492 15.4318 15.4517 15.1776 15.5833 14.86C15.715 14.5318 15.7757 14.1612 15.7454 13.7376C15.715 13.3459 15.6137 13.0071 15.4618 12.7424C15.2998 12.4776 15.0973 12.2447 14.8239 12.0647C14.5505 11.8741 14.2366 11.7047 13.862 11.5459C13.4907 11.3835 13.1228 11.2247 12.7583 11.0694C11.9077 10.7094 11.2496 10.1482 10.7534 9.38588C10.2775 8.62353 10.0244 7.58588 9.98386 6.29412C9.96361 5.23529 10.075 4.31412 10.3383 3.52C10.5813 2.72588 10.9255 2.10118 11.3812 1.65647C11.8166 1.21176 12.3229 1 12.9102 1C13.5177 1 14.0746 1.21176 14.591 1.65647C15.1277 2.10118 15.5935 2.72588 15.9985 3.52C16.4136 4.31412 16.7073 5.22471 16.8896 6.27294C16.2483 6.27294 15.6103 6.27294 14.9758 6.27294Z" fill="#090FAF"/>
<path d="M4.2 16.54C2.97333 16.54 1.74 16.54 0.5 16.54C0.92 11.0267 1.57 5.51333 2.45 0C3.44333 0 4.43 0 5.41 0C6.23 0 6.91 0.33 7.46 0.99C8.03 1.65 8.46 2.6 8.78 3.83C9.11 5.06 9.28 6.54 9.27 8.25C9.27 9.98 9.07 11.46 8.67 12.7C8.26 13.93 7.69 14.89 6.93 15.55C6.17 16.21 5.25 16.54 4.2 16.54ZM2.84 13.54C3.30667 13.54 3.76667 13.54 4.22 13.54C4.86 13.54 5.4 13.36 5.84 13C6.29 12.62 6.63 12.05 6.86 11.28C7.1 10.49 7.23 9.49 7.27 8.25C7.32 7.03 7.26 6.03 7.1 5.26C6.94 4.48 6.69 3.91 6.34 3.55C5.99 3.18 5.55 3 5.01 3C4.61 3 4.21 3 3.81 3C3.41667 6.51333 3.09333 10.0267 2.84 13.54Z" fill="#AB80F2"/>
<path d="M15.29 4.98C15.17 4.33 14.96 3.82 14.65 3.46C14.34 3.1 13.98 2.92 13.54 2.92C13.24 2.92 13 3 12.81 3.16C12.62 3.32 12.47 3.53 12.38 3.81C12.29 4.09 12.26 4.41 12.28 4.77C12.29 5.06 12.34 5.32 12.44 5.54C12.53 5.76 12.64 5.96 12.79 6.12C12.93 6.27 13.1 6.41 13.29 6.53C13.47 6.64 13.67 6.74 13.88 6.82C14.1733 6.94 14.47 7.05667 14.77 7.17C15.2 7.34 15.61 7.55 15.98 7.82C16.37 8.09 16.73 8.42 17.04 8.81C17.36 9.21 17.62 9.67 17.83 10.2C18.04 10.74 18.18 11.35 18.25 12.04C18.33 13.05 18.23 13.93 17.95 14.67C17.67 15.41 17.23 15.98 16.64 16.39C16.05 16.79 15.33 17 14.49 17C13.65 17 12.91 16.79 12.28 16.38C11.67 15.97 11.18 15.37 10.83 14.56C10.48 13.76 10.29 12.76 10.25 11.57C10.9233 11.57 11.5966 11.57 12.27 11.57C12.31 12.12 12.43 12.59 12.62 12.96C12.8 13.32 13.04 13.6 13.34 13.79C13.65 13.97 13.98 14.06 14.35 14.06C14.72 14.06 15.03 13.98 15.29 13.81C15.56 13.63 15.76 13.39 15.89 13.09C16.02 12.78 16.08 12.43 16.05 12.03C16.02 11.66 15.92 11.34 15.77 11.09C15.61 10.84 15.41 10.62 15.14 10.45C14.87 10.27 14.56 10.11 14.19 9.96C13.8233 9.80667 13.46 9.65667 13.1 9.51C12.26 9.17 11.61 8.64 11.12 7.92C10.65 7.2 10.4 6.22 10.36 5C10.34 4 10.45 3.13 10.71 2.38C10.95 1.63 11.29 1.04 11.74 0.62C12.17 0.2 12.67 0 13.25 0C13.85 0 14.4 0.2 14.91 0.62C15.44 1.04 15.9 1.63 16.3 2.38C16.71 3.13 17 3.99 17.18 4.98C16.5466 4.98 15.9166 4.98 15.29 4.98Z" fill="#AB80F2"/>
</svg>
