<svg width="25" height="25" viewBox="0 0 25 25" fill="none" xmlns="http://www.w3.org/2000/svg">
<g clip-path="url(#clip0_3258_11807)">
<mask id="mask0_3258_11807" style="mask-type:luminance" maskUnits="userSpaceOnUse" x="0" y="0" width="25" height="25">
<path d="M25 0H0V25H25V0Z" fill="white"/>
</mask>
<g mask="url(#mask0_3258_11807)">
<path d="M12.5001 0V1.78571H10.7144V0H12.5001Z" fill="#fff"/>
<path d="M14.2857 0V1.78571H12.5V0H14.2857Z" fill="#fff"/>
<path d="M12.5001 5.35693V7.14265H10.7144V5.35693H12.5001Z" fill="#fff"/>
<path d="M10.7142 1.78564V3.57136H8.92847V1.78564H10.7142Z" fill="#fff"/>
<path d="M12.5001 0V1.78571H10.7144V0H12.5001Z" fill="#fff"/>
<path d="M14.2857 7.14307V8.92878H12.5V7.14307H14.2857Z" fill="#fff"/>
<path d="M14.2857 3.57129V5.357H12.5V3.57129H14.2857Z" fill="#fff"/>
<path d="M16.0714 1.78564V3.57136H14.2856V1.78564H16.0714Z" fill="#fff"/>
<path d="M12.5001 10.7144V12.5001H10.7144V10.7144H12.5001Z" fill="#fff"/>
<path d="M14.2857 8.92871V10.7144H12.5V8.92871H14.2857Z" fill="#fff"/>
<path d="M10.7142 5.35693V7.14265H8.92847V5.35693H10.7142Z" fill="#fff"/>
<path d="M12.5001 3.57129V5.357H10.7144V3.57129H12.5001Z" fill="#fff"/>
<path d="M16.0714 5.35693V7.14265H14.2856V5.35693H16.0714Z" fill="#fff"/>
<path d="M10.7142 7.14307V8.92878H8.92847V7.14307H10.7142Z" fill="#fff"/>
<path d="M17.8572 12.5V14.2857H16.0715V12.5H17.8572Z" fill="#fff"/>
<path d="M14.2857 12.5V14.2857H12.5V12.5H14.2857Z" fill="#fff"/>
<path d="M14.2857 5.35693V7.14265H12.5V5.35693H14.2857Z" fill="#fff"/>
<path d="M10.7142 8.92871V10.7144H8.92847V8.92871H10.7142Z" fill="#fff"/>
<path d="M12.5001 7.14307V8.92878H10.7144V7.14307H12.5001Z" fill="#fff"/>
<path d="M16.0714 7.14307V8.92878H14.2856V7.14307H16.0714Z" fill="#fff"/>
<path d="M16.0714 8.92871V10.7144H14.2856V8.92871H16.0714Z" fill="#fff"/>
<path d="M8.92854 14.2856V16.0714H7.14282V14.2856H8.92854Z" fill="#fff"/>
<path d="M12.5001 12.5V14.2857H10.7144V12.5H12.5001Z" fill="#fff"/>
<path d="M10.7142 10.7144V12.5001H8.92847V10.7144H10.7142Z" fill="#fff"/>
<path d="M8.92854 10.7144V12.5001H7.14282V10.7144H8.92854Z" fill="#fff"/>
<path d="M12.5001 8.92871V10.7144H10.7144V8.92871H12.5001Z" fill="#fff"/>
<path d="M10.7142 12.5V14.2857H8.92847V12.5H10.7142Z" fill="#fff"/>
<path d="M1.78571 12.5V14.2857H0V12.5H1.78571Z" fill="#fff"/>
<path d="M19.6429 14.2856V16.0714H17.8572V14.2856H19.6429Z" fill="#fff"/>
<path d="M14.2857 10.7144V12.5001H12.5V10.7144H14.2857Z" fill="#fff"/>
<path d="M16.0714 10.7144V12.5001H14.2856V10.7144H16.0714Z" fill="#fff"/>
<path d="M7.14289 16.0713V17.857H5.35718V16.0713H7.14289Z" fill="#fff"/>
<path d="M7.14289 12.5V14.2857H5.35718V12.5H7.14289Z" fill="#fff"/>
<path d="M8.92854 12.5V14.2857H7.14282V12.5H8.92854Z" fill="#fff"/>
<path d="M21.4285 16.0713V17.857H19.6428V16.0713H21.4285Z" fill="#fff"/>
<path d="M25.0001 12.5V14.2857H23.2144V12.5H25.0001Z" fill="#fff"/>
<path d="M16.0714 12.5V14.2857H14.2856V12.5H16.0714Z" fill="#fff"/>
<path d="M17.8572 10.7144V12.5001H16.0715V10.7144H17.8572Z" fill="#fff"/>
<path d="M17.8572 17.8569V19.6426H16.0715V17.8569H17.8572Z" fill="#fff"/>
<path d="M25.0001 14.2856V16.0714H23.2144V14.2856H25.0001Z" fill="#fff"/>
<path d="M16.0714 14.2856V16.0714H14.2856V14.2856H16.0714Z" fill="#fff"/>
<path d="M17.8572 14.2856V16.0714H16.0715V14.2856H17.8572Z" fill="#fff"/>
<path d="M10.7142 14.2856V16.0714H8.92847V14.2856H10.7142Z" fill="#fff"/>
<path d="M7.14289 14.2856V16.0714H5.35718V14.2856H7.14289Z" fill="#fff"/>
<path d="M3.57136 17.8569V19.6426H1.78564V17.8569H3.57136Z" fill="#fff"/>
<path d="M5.35725 16.0713V17.857H3.57153V16.0713H5.35725Z" fill="#fff"/>
<path d="M1.78571 14.2856V16.0714H0V14.2856H1.78571Z" fill="#fff"/>
<path d="M19.6429 12.5V14.2857H17.8572V12.5H19.6429Z" fill="#fff"/>
<path d="M21.4285 14.2856V16.0714H19.6428V14.2856H21.4285Z" fill="#fff"/>
<path d="M23.2142 17.8569V19.6426H21.4285V17.8569H23.2142Z" fill="#fff"/>
<path d="M17.8572 16.0713V17.857H16.0715V16.0713H17.8572Z" fill="#fff"/>
<path d="M19.6429 16.0713V17.857H17.8572V16.0713H19.6429Z" fill="#fff"/>
<path d="M25.0001 16.0713V17.857H23.2144V16.0713H25.0001Z" fill="#fff"/>
<path d="M3.57136 16.0713V17.857H1.78564V16.0713H3.57136Z" fill="#fff"/>
<path d="M8.92854 17.8569V19.6426H7.14282V17.8569H8.92854Z" fill="#fff"/>
<path d="M5.35725 14.2856V16.0714H3.57153V14.2856H5.35725Z" fill="#fff"/>
<path d="M1.78571 16.0713V17.857H0V16.0713H1.78571Z" fill="#fff"/>
<path d="M1.78571 19.6431V21.4288H0V19.6431H1.78571Z" fill="#fff"/>
<path d="M5.35725 17.8569V19.6426H3.57153V17.8569H5.35725Z" fill="#fff"/>
<path d="M7.14289 17.8569V19.6426H5.35718V17.8569H7.14289Z" fill="#fff"/>
<path d="M17.8572 19.6431V21.4288H16.0715V19.6431H17.8572Z" fill="#fff"/>
<path d="M19.6429 17.8569V19.6426H17.8572V17.8569H19.6429Z" fill="#fff"/>
<path d="M23.2142 16.0713V17.857H21.4285V16.0713H23.2142Z" fill="#fff"/>
<path d="M23.2142 19.6431V21.4288H21.4285V19.6431H23.2142Z" fill="#fff"/>
<path d="M8.92854 21.4287V23.2144H7.14282V21.4287H8.92854Z" fill="#fff"/>
<path d="M19.6429 21.4287V23.2144H17.8572V21.4287H19.6429Z" fill="#fff"/>
<path d="M25.0001 17.8569V19.6426H23.2144V17.8569H25.0001Z" fill="#fff"/>
<path d="M25.0001 21.4287V23.2144H23.2144V21.4287H25.0001Z" fill="#fff"/>
<path d="M7.14289 17.8569V19.6426H5.35718V17.8569H7.14289Z" fill="#fff"/>
<path d="M7.14289 23.2144V25.0001H5.35718V23.2144H7.14289Z" fill="#fff"/>
<path d="M8.92854 16.0713V17.857H7.14282V16.0713H8.92854Z" fill="#fff"/>
<path d="M1.78571 23.2144V25.0001H0V23.2144H1.78571Z" fill="#fff"/>
<path d="M5.35725 21.4287V23.2144H3.57153V21.4287H5.35725Z" fill="#fff"/>
<path d="M3.57136 19.6431V21.4288H1.78564V19.6431H3.57136Z" fill="#fff"/>
<path d="M8.92854 19.6431V21.4288H7.14282V19.6431H8.92854Z" fill="#fff"/>
<path d="M21.4285 17.8569V19.6426H19.6428V17.8569H21.4285Z" fill="#fff"/>
<path d="M19.6429 19.6431V21.4288H17.8572V19.6431H19.6429Z" fill="#fff"/>
<path d="M1.78571 17.8569V19.6426H0V17.8569H1.78571Z" fill="#fff"/>
<path d="M17.8572 23.2144V25.0001H16.0715V23.2144H17.8572Z" fill="#fff"/>
<path d="M25.0001 19.6431V21.4288H23.2144V19.6431H25.0001Z" fill="#fff"/>
<path d="M23.2142 23.2144V25.0001H21.4285V23.2144H23.2142Z" fill="#fff"/>
<path d="M7.14289 19.6431V21.4288H5.35718V19.6431H7.14289Z" fill="#fff"/>
<path d="M5.35725 23.2144V25.0001H3.57153V23.2144H5.35725Z" fill="#fff"/>
<path d="M7.14289 21.4287V23.2144H5.35718V21.4287H7.14289Z" fill="#fff"/>
<path d="M3.57136 21.4287V23.2144H1.78564V21.4287H3.57136Z" fill="#fff"/>
<path d="M23.2142 21.4287V23.2144H21.4285V21.4287H23.2142Z" fill="#fff"/>
<path d="M8.92854 19.6431V21.4288H7.14282V19.6431H8.92854Z" fill="#fff"/>
<path d="M25.0001 19.6431V21.4288H23.2144V19.6431H25.0001Z" fill="#fff"/>
<path d="M1.78571 21.4287V23.2144H0V21.4287H1.78571Z" fill="#fff"/>
<path d="M21.4285 21.4287V23.2144H19.6428V21.4287H21.4285Z" fill="#fff"/>
<path d="M17.8572 21.4287V23.2144H16.0715V21.4287H17.8572Z" fill="#fff"/>
<path d="M3.57136 23.2144V25.0001H1.78564V23.2144H3.57136Z" fill="#fff"/>
<path d="M8.92854 23.2144V25.0001H7.14282V23.2144H8.92854Z" fill="#fff"/>
<path d="M19.6429 23.2144V25.0001H17.8572V23.2144H19.6429Z" fill="#fff"/>
<path d="M25.0001 23.2144V25.0001H23.2144V23.2144H25.0001Z" fill="#fff"/>
<path d="M21.4285 23.2144V25.0001H19.6428V23.2144H21.4285Z" fill="#fff"/>
</g>
</g>
<defs>
<clipPath id="clip0_3258_11807">
<rect width="25" height="25" fill="white"/>
</clipPath>
</defs>
</svg>
