<svg width="553" height="120" viewBox="0 0 553 120" fill="none" xmlns="http://www.w3.org/2000/svg">
<path d="M0 1.87164C5.98164 2.82337 11.9702 3.72337 17.9657 4.57164V49.0544C24.3968 49.2475 30.8314 49.4337 37.2694 49.613C37.2694 35.4475 37.2694 21.2785 37.2694 7.10612C43.2649 7.85095 49.2708 8.54061 55.287 9.17509C55.287 42.6578 55.287 76.1509 55.287 109.654C49.2777 110.213 43.2718 110.827 37.2694 111.496V64.5613C30.8245 64.6027 24.3899 64.6509 17.9657 64.7061V113.916C11.9702 114.716 5.98164 115.582 0 116.513V1.87164Z" fill="white"/>
<path d="M91.7146 108.27C82.9496 108.828 76.2799 107.308 71.6848 103.449C67.0896 99.5906 64.7869 93.4768 64.7869 85.4802C64.7869 60.3974 64.7869 35.3147 64.7869 10.2319C70.8031 10.8319 76.8262 11.3837 82.8563 11.8871C82.8563 36.563 82.8563 61.2388 82.8563 85.9147C82.8563 89.1975 83.6238 91.5319 85.159 92.9181C86.7979 94.2974 89.0972 94.9181 92.0569 94.7802C95.0235 94.6561 97.2433 93.8492 98.7992 92.3699C100.355 90.8906 101.268 88.5526 101.268 85.3664C101.268 61.3388 101.268 37.3112 101.268 13.2837C107.077 13.6871 112.896 14.0285 118.705 14.3181C118.705 37.5112 118.705 60.7078 118.705 83.9078C118.705 91.294 116.402 97.025 111.786 101.246C107.17 105.466 100.49 107.722 91.7146 108.27Z" fill="white"/>
<path d="M128.312 14.8039C137.524 15.2039 146.741 15.497 155.966 15.6832C164.97 15.8694 171.733 17.7522 176.235 21.4763C180.737 25.2004 182.987 30.6108 182.987 37.7694C182.987 52.6866 182.987 67.6004 182.987 82.5108C182.987 89.6694 180.733 95.1004 176.224 98.8039C171.723 102.518 164.97 104.4 155.966 104.535C146.741 104.673 137.517 104.897 128.292 105.207C128.306 75.0694 128.312 44.9349 128.312 14.8039ZM155.593 91.8418C158.56 91.8418 160.81 91.1522 162.346 89.7729C163.995 88.4073 164.814 86.2142 164.825 83.1729C164.825 67.8211 164.825 52.466 164.825 37.1073C164.825 34.066 163.995 31.8625 162.356 30.497C160.717 29.1315 158.56 28.428 155.603 28.428L146.372 28.2625V91.9556L155.593 91.8418Z" fill="white"/>
<path d="M191.896 15.8388C201.114 15.7353 210.335 15.5215 219.56 15.1974C228.564 14.8663 235.306 16.4181 239.808 20.0284C244.31 23.6388 246.55 29.1939 246.55 36.6422C246.55 52.1456 246.55 67.6629 246.55 83.1939C246.55 90.656 244.303 96.225 239.808 99.9008C235.316 103.573 228.564 105.197 219.56 104.949C210.342 104.701 201.117 104.539 191.885 104.463L191.896 15.8388ZM219.259 92.0698C222.226 92.125 224.477 91.4801 226.012 90.1353C227.658 88.756 228.481 86.5353 228.481 83.4732C228.481 67.8112 228.481 52.1525 228.481 36.4974C228.481 33.4077 227.658 31.1974 226.012 29.8663C224.477 28.5319 222.226 27.9215 219.27 27.9939L210.048 28.2112V91.9456C213.119 91.987 216.189 92.0698 219.259 92.0698Z" fill="white"/>
<path d="M255.493 13.3547C261.523 12.9478 267.55 12.4961 273.573 11.9995C273.573 39.2616 273.573 66.5202 273.573 93.7754C283.482 94.2305 293.381 94.7788 303.27 95.4202V109.8C287.369 108.3 271.447 107.172 255.493 106.324C255.5 75.3305 255.5 44.3409 255.493 13.3547Z" fill="white"/>
<path d="M308.651 8.54497C325.04 6.6829 341.398 4.45876 357.724 1.87256V18.2484C347.351 19.4208 336.999 20.4967 326.668 21.476V49.4691L351.355 48.745V64.8415C343.14 64.7312 334.911 64.6519 326.668 64.6036V97.1381C337.041 98.0001 347.393 99.0001 357.724 100.138V116.514C341.398 113.969 325.05 111.941 308.661 110.307C308.661 76.3829 308.658 42.4622 308.651 8.54497Z" fill="white"/>
<path d="M475.431 0H400.747C394.695 0 388.891 2.39778 384.611 6.66585C380.331 10.9339 377.927 16.7227 377.927 22.7586V97.2414C377.927 103.277 380.331 109.066 384.611 113.334C388.891 117.602 394.695 120 400.747 120H475.431C481.484 120 487.288 117.602 491.568 113.334C495.847 109.066 498.252 103.277 498.252 97.2414V22.7586C498.252 16.7227 495.847 10.9339 491.568 6.66585C487.288 2.39778 481.484 0 475.431 0V0Z" fill="#246BFD"/>
<path d="M539.663 21.4545C538.614 21.6789 537.618 22.1002 536.727 22.6959L518.938 33.4959C516.15 35.2032 513.861 37.6112 512.299 40.4787C510.696 43.407 509.858 46.6906 509.862 50.0269V70.0131C509.86 73.3571 510.702 76.6477 512.31 79.5821C513.878 82.4572 516.179 84.8693 518.979 86.5752L536.904 97.3752C538.064 98.0903 539.36 98.5588 540.71 98.7511C542.053 98.938 543.421 98.8428 544.725 98.4718C546.042 98.0922 547.27 97.4519 548.334 96.589C549.413 95.7053 550.309 94.6193 550.969 93.3925C551.87 91.7121 552.34 89.8358 552.338 87.9304V31.9649C552.335 30.3432 551.981 28.7413 551.301 27.2683C550.628 25.8204 549.644 24.5382 548.417 23.5131C547.215 22.5103 545.794 21.8017 544.268 21.4442C542.754 21.082 541.175 21.0855 539.663 21.4545V21.4545Z" fill="#246BFD"/>
<path d="M421.665 98.8443C416.091 98.8443 411.828 97.2271 408.875 93.9926C405.923 90.7581 404.446 86.1926 404.446 80.296V41.503C404.446 35.5926 405.923 31.0236 408.875 27.7961C411.828 24.5685 416.091 22.9512 421.665 22.9443C427.197 22.9443 431.457 24.5616 434.444 27.7961C437.432 31.0305 438.908 35.5995 438.874 41.503V80.296C438.874 86.1926 437.397 90.7581 434.444 93.9926C431.492 97.2271 427.232 98.8443 421.665 98.8443ZM421.665 88.3029C425.572 88.3029 427.529 85.8891 427.536 81.0616V40.7581C427.536 35.9305 425.579 33.5167 421.665 33.5167C417.751 33.5167 415.791 35.9305 415.784 40.7581V81.0305C415.784 85.8857 417.744 88.3098 421.665 88.3029Z" fill="white"/>
<path d="M460.366 41.5025H448.51V33.2783C451.112 33.3532 453.713 33.0678 456.237 32.4301C458.061 31.9899 459.72 31.0387 461.019 29.6887C462.393 27.9954 463.447 26.0676 464.131 23.999H471.755V97.7887H460.366V41.5025Z" fill="white"/>
</svg>
