<svg width="14" height="14" viewBox="0 0 14 14" fill="none" xmlns="http://www.w3.org/2000/svg">
<path d="M13.5904 12.4408L13.4468 12.5051C12.5776 12.8884 11.6026 12.9859 10.6707 12.7828C10.1737 12.6772 9.69971 12.4881 9.27033 12.224C10.1213 12.4368 11.0236 12.3354 11.8015 11.9395L11.9135 11.8819L12.064 11.8006L11.6439 11.0859L11.4934 11.1706L11.4094 11.2146C10.9998 11.425 10.5406 11.5285 10.0771 11.5148C9.61359 11.5011 9.16176 11.3708 8.7662 11.1367C8.41534 10.9336 8.11575 10.6574 7.88922 10.3281C7.6627 9.99876 7.51505 9.6247 7.45688 9.23316C9.48961 9.05101 11.3975 8.20396 12.8657 6.83169L13.0198 6.67586C13.278 6.42677 13.4781 6.12715 13.6067 5.79706C13.7353 5.46698 13.7894 5.11411 13.7654 4.76212C13.7058 4.13007 13.4154 3.53925 12.9462 3.09566C12.4883 2.64099 11.8773 2.35985 11.2238 2.30307C10.6541 2.26426 10.0881 2.41614 9.62042 2.73323C9.52313 2.18839 9.23211 1.69357 8.79768 1.33435C8.29498 0.926448 7.6578 0.706522 7.00174 0.714504C6.35073 0.706699 5.71803 0.922755 5.21631 1.32418C4.78393 1.68504 4.49337 2.1791 4.39361 2.72307C3.92609 2.40573 3.35988 2.25381 2.79021 2.2929C2.13693 2.35056 1.52626 2.63157 1.06778 3.0855C0.598108 3.52836 0.308602 4.1198 0.252074 4.75196C0.22762 5.10399 0.281532 5.45701 0.410172 5.78714C0.538813 6.11732 0.739193 6.4169 0.99776 6.66569C1.04677 6.71989 1.09929 6.77068 1.1518 6.82152C2.61881 8.19354 4.52549 9.04064 6.55715 9.22299C6.4997 9.61477 6.35231 9.98909 6.12573 10.3185C5.89915 10.6479 5.59916 10.924 5.24784 11.1265C4.85291 11.3607 4.40164 11.4911 3.93868 11.5047C3.47571 11.5184 3.01709 11.4149 2.60815 11.2045L2.52064 11.1604L2.3701 11.0757L1.94999 11.7904L2.10403 11.8717C2.13903 11.8929 2.17526 11.9121 2.21255 11.9293C2.99039 12.3252 3.89276 12.4266 4.7437 12.2138C4.31465 12.4786 3.84055 12.6678 3.34335 12.7727C2.41142 12.9757 1.4364 12.8782 0.567139 12.495L0.423616 12.4306L0 13.1419L0.171561 13.2198C1.22207 13.6856 2.40165 13.8046 3.52889 13.5585C4.67606 13.3194 5.704 12.7074 6.44159 11.8243L6.57465 11.6583V13.7143H7.42183V11.6516C7.46387 11.7125 7.50938 11.7701 7.55489 11.8243C8.2884 12.7194 9.31828 13.3425 10.4711 13.589C10.8468 13.6713 11.2307 13.7133 11.6159 13.7143C12.3818 13.7134 13.1381 13.5504 13.8319 13.2367L14 13.1588L13.5904 12.4408ZM5.1883 3.55631C5.1883 3.5055 5.1883 3.45808 5.1883 3.41066C5.1883 3.36324 5.1883 3.28195 5.1883 3.22098C5.18809 2.99276 5.23559 2.76685 5.32794 2.55684C5.42023 2.34682 5.55548 2.15702 5.72548 1.99884C5.89553 1.84066 6.09685 1.71737 6.31736 1.63635C6.53787 1.55534 6.77307 1.51828 7.00878 1.52742C7.24444 1.51828 7.47964 1.55534 7.70015 1.63635C7.92065 1.71737 8.12198 1.84066 8.29202 1.99884C8.46202 2.15702 8.59728 2.34682 8.68962 2.55684C8.78192 2.76685 8.82941 2.99276 8.82921 3.22098C8.82921 3.28195 8.82921 3.3463 8.82921 3.41066C8.82921 3.47502 8.82921 3.50889 8.82921 3.5597L8.8012 4.66389L9.59588 3.85098L9.69394 3.75614L9.83394 3.62066C10.001 3.46021 10.1998 3.334 10.4183 3.24957C10.6369 3.16515 10.8709 3.12423 11.1062 3.12929C11.3415 3.13435 11.5734 3.18529 11.7878 3.27902C12.0023 3.37276 12.1951 3.50739 12.3546 3.67486C12.5277 3.82916 12.6669 4.01566 12.7637 4.2232C12.8606 4.43073 12.9132 4.65504 12.9185 4.8827C12.9237 5.11037 12.8814 5.33672 12.7942 5.54823C12.7069 5.7597 12.5765 5.95201 12.4106 6.11362L12.2741 6.25248C10.8472 7.56077 8.98574 8.33516 7.02276 8.43714C5.05947 8.33635 3.19762 7.56176 1.77144 6.25248L1.63142 6.11362C1.46558 5.95201 1.33513 5.7597 1.24787 5.54823C1.16061 5.33672 1.11832 5.11037 1.12355 4.8827C1.12878 4.65504 1.18141 4.43073 1.2783 4.2232C1.37518 4.01566 1.51433 3.82916 1.68742 3.67486C2.03274 3.33019 2.50426 3.13068 3.00025 3.11936C3.45535 3.12618 3.88932 3.3063 4.20805 3.62066L4.3516 3.75276L4.45663 3.86115L5.24431 4.66389L5.1883 3.55631Z" fill="#00501E"/>
</svg>
