<svg width="1024" height="1024" viewBox="0 0 1024 1024" fill="none" xmlns="http://www.w3.org/2000/svg">
<g clip-path="url(#clip0_2885_11036)">
<path d="M680.63 0C666.492 0 655.274 11.5632 652.73 25.4708C640.745 90.9822 583.369 140.635 514.395 140.635C445.422 140.635 388.045 90.9822 376.061 25.4708C373.516 11.5632 362.298 0 348.16 0H25.6C11.4615 0 0 11.4615 0 25.6V998.4C0 1012.54 11.4615 1024 25.6 1024H350.898C364.157 1024 374.973 1013.77 378.329 1000.94C394.125 940.557 449.057 896 514.395 896C579.734 896 634.665 940.557 650.462 1000.94C653.817 1013.77 664.634 1024 677.892 1024H998.4C1012.54 1024 1024 1012.54 1024 998.4V25.6C1024 11.4615 1012.54 0 998.4 0H680.63Z" fill="url(#paint0_linear_2885_11036)"/>
</g>
<defs>
<linearGradient id="paint0_linear_2885_11036" x1="512" y1="0" x2="512" y2="1024" gradientUnits="userSpaceOnUse">
<stop stop-color="#7EAEF9"/>
<stop offset="0.505208" stop-color="#B26DFF"/>
<stop offset="1" stop-color="#E448DF"/>
</linearGradient>
<clipPath id="clip0_2885_11036">
<rect width="1024" height="1024" rx="163" fill="white"/>
</clipPath>
</defs>
</svg>
