<svg width="2292" height="1024" viewBox="0 0 2292 1024" fill="none" xmlns="http://www.w3.org/2000/svg">
<g clip-path="url(#clip0_3228_12372)">
<path d="M680.63 0C666.492 0 655.274 11.5632 652.73 25.4708C640.745 90.9822 583.369 140.635 514.395 140.635C445.422 140.635 388.045 90.9822 376.061 25.4708C373.516 11.5632 362.298 0 348.16 0H25.6C11.4615 0 0 11.4615 0 25.6V998.4C0 1012.54 11.4615 1024 25.6 1024H350.898C364.157 1024 374.973 1013.77 378.329 1000.94C394.125 940.557 449.057 896 514.395 896C579.734 896 634.665 940.557 650.462 1000.94C653.817 1013.77 664.634 1024 677.892 1024H998.4C1012.54 1024 1024 1012.54 1024 998.4V25.6C1024 11.4615 1012.54 0 998.4 0H680.63Z" fill="url(#paint0_linear_3228_12372)"/>
</g>
<path d="M1238.87 466C1232.15 466 1226.26 461.539 1224.43 455.079L1178.97 294.17C1176.26 284.597 1183.45 275.091 1193.4 275.091H1207.73C1214.61 275.091 1220.61 279.776 1222.28 286.453L1252.79 408.478C1252.91 408.975 1253.36 409.324 1253.87 409.324V409.324C1254.38 409.324 1254.83 408.978 1254.95 408.483L1286.16 286.377C1287.85 279.737 1293.84 275.091 1300.69 275.091H1322.77C1329.62 275.091 1335.6 279.727 1337.3 286.358L1368.48 407.68C1368.62 408.209 1369.09 408.578 1369.64 408.578V408.578C1370.19 408.578 1370.67 408.203 1370.8 407.669L1400.81 286.485C1402.47 279.792 1408.48 275.091 1415.37 275.091H1429.79C1439.74 275.091 1446.93 284.604 1444.22 294.178L1398.65 455.087C1396.82 461.544 1390.93 466 1384.22 466H1360.11C1353.37 466 1347.45 461.505 1345.65 455.011L1313.25 338.245C1313.05 337.502 1312.37 336.987 1311.6 336.987V336.987C1310.83 336.987 1310.15 337.502 1309.95 338.245L1277.55 455.011C1275.75 461.505 1269.83 466 1263.09 466H1238.87Z" fill="white"/>
<path d="M1560.09 469.729C1540.95 469.729 1524.41 465.752 1510.49 457.797C1496.66 449.76 1486.01 438.408 1478.55 423.742C1471.09 408.993 1467.37 391.633 1467.37 371.664C1467.37 352.026 1471.09 334.792 1478.55 319.96C1486.09 305.045 1496.62 293.445 1510.12 285.159C1523.63 276.79 1539.5 272.605 1557.72 272.605C1569.49 272.605 1580.59 274.511 1591.03 278.323C1601.56 282.051 1610.84 287.852 1618.88 295.723C1627 303.595 1633.38 313.621 1638.02 325.801C1642.66 337.899 1644.98 352.316 1644.98 369.054V369.054C1644.98 376.674 1638.8 382.85 1631.18 382.85H1503.5C1495.21 382.85 1488.5 376.135 1488.5 367.85V367.524C1488.5 359.239 1495.21 352.524 1503.5 352.524H1586.7C1595.04 352.524 1602.1 345.565 1599.64 337.594C1598.77 334.768 1597.64 332.08 1596.25 329.53C1592.61 322.736 1587.51 317.391 1580.97 313.497C1574.5 309.602 1566.96 307.655 1558.35 307.655C1549.15 307.655 1541.07 309.892 1534.11 314.367C1527.15 318.758 1521.72 324.558 1517.83 331.767C1514.02 338.893 1512.07 346.723 1511.99 355.258V381.732C1511.99 392.835 1514.02 402.364 1518.08 410.318C1522.14 418.19 1527.81 424.239 1535.1 428.465C1542.4 432.608 1550.93 434.679 1560.71 434.679C1567.25 434.679 1573.18 433.768 1578.48 431.945C1583.78 430.039 1588.38 427.263 1592.28 423.617C1593.39 422.575 1594.43 421.461 1595.38 420.276C1599.72 414.909 1605.92 410.612 1612.78 411.383L1626.26 412.898C1635.21 413.905 1641.4 422.67 1637.2 430.641C1634.7 435.393 1631.61 439.805 1627.95 443.877C1620.57 452.08 1611.13 458.46 1599.61 463.017C1588.09 467.492 1574.92 469.729 1560.09 469.729Z" fill="white"/>
<path d="M1700.03 466C1691.74 466 1685.03 459.284 1685.03 451V226.455C1685.03 218.17 1691.74 211.455 1700.03 211.455H1715.02C1723.31 211.455 1730.02 218.17 1730.02 226.455V305.508C1730.02 306.145 1730.54 306.661 1731.17 306.661V306.661C1731.61 306.661 1732.01 306.414 1732.21 306.026C1734.51 301.572 1737.67 296.853 1741.7 291.87C1745.93 286.567 1751.65 282.051 1758.86 278.323C1766.07 274.511 1775.26 272.605 1786.45 272.605C1801.2 272.605 1814.5 276.375 1826.35 283.916C1838.28 291.373 1847.72 302.435 1854.68 317.101C1861.73 331.684 1865.25 349.582 1865.25 370.794C1865.25 391.758 1861.81 409.573 1854.93 424.239C1848.06 438.905 1838.69 450.091 1826.84 457.797C1814.99 465.503 1801.57 469.356 1786.57 469.356C1775.64 469.356 1766.56 467.533 1759.35 463.887C1752.14 460.241 1746.34 455.85 1741.95 450.713C1737.91 445.818 1734.71 441.179 1732.35 436.795C1732.06 436.261 1731.5 435.922 1730.9 435.922V435.922C1730 435.922 1729.28 436.649 1729.28 437.545V451C1729.28 459.284 1722.56 466 1714.28 466H1700.03ZM1729.15 370.546C1729.15 382.892 1730.89 393.705 1734.37 402.985C1737.93 412.266 1743.03 419.516 1749.66 424.736C1756.37 429.873 1764.49 432.442 1774.02 432.442C1783.96 432.442 1792.29 429.79 1799 424.487C1805.71 419.102 1810.77 411.768 1814.17 402.488C1817.65 393.125 1819.39 382.477 1819.39 370.546C1819.39 358.697 1817.69 348.173 1814.29 338.976C1810.89 329.779 1805.84 322.57 1799.13 317.35C1792.41 312.129 1784.05 309.519 1774.02 309.519C1764.41 309.519 1756.25 312.047 1749.53 317.101C1742.82 322.155 1737.73 329.24 1734.25 338.355C1730.85 347.469 1729.15 358.2 1729.15 370.546Z" fill="white"/>
<path d="M1994.35 469.48C1976.46 469.48 1960.55 466.414 1946.63 460.283C1932.79 454.151 1921.85 445.617 1913.81 434.679C1908.78 427.827 1905.22 420.308 1903.15 412.123C1901.06 403.895 1908.05 396.771 1916.54 396.771H1933.62C1941.56 396.771 1947.71 403.305 1951.53 410.256C1952.4 411.837 1953.42 413.349 1954.58 414.793C1958.72 419.847 1964.23 423.783 1971.11 426.6C1977.99 429.418 1985.7 430.826 1994.23 430.826C2003.34 430.826 2011.42 429.252 2018.47 426.103C2025.51 422.872 2031.02 418.397 2035 412.68C2038.97 406.963 2040.92 400.375 2040.84 392.918C2040.92 385.212 2038.93 378.417 2034.87 372.534C2030.81 366.651 2024.93 362.053 2017.22 358.738C2009.6 355.424 2000.4 353.767 1989.63 353.767H1982.14C1973.85 353.767 1967.14 347.051 1967.14 338.767V333.22C1967.14 324.935 1973.85 318.22 1982.14 318.22H1989.63C1998.5 318.22 2006.24 316.687 2012.87 313.621C2019.59 310.555 2024.85 306.246 2028.66 300.695C2032.47 295.06 2034.33 288.556 2034.25 281.181C2034.33 273.972 2032.72 267.717 2029.4 262.414C2026.17 257.028 2021.57 252.843 2015.61 249.86C2009.73 246.877 2002.81 245.386 1994.85 245.386C1987.06 245.386 1979.85 246.794 1973.23 249.612C1966.6 252.429 1961.25 256.448 1957.19 261.668C1956.07 263.084 1955.1 264.577 1954.27 266.145C1950.49 273.287 1944.32 280.063 1936.24 280.063H1921.71C1913.29 280.063 1906.31 273.046 1908.3 264.862C1910.27 256.732 1913.72 249.287 1918.66 242.527C1926.62 231.673 1937.22 223.221 1950.48 217.172C1963.74 211.04 1978.61 207.975 1995.1 207.975C2012.09 207.975 2026.84 211.165 2039.35 217.545C2051.94 223.842 2061.68 232.335 2068.56 243.024C2075.43 253.713 2078.87 265.521 2078.87 278.447C2078.95 292.782 2074.73 304.796 2066.19 314.491C2057.93 323.965 2047.14 330.234 2033.82 333.299C2033.27 333.424 2032.88 333.905 2032.88 334.463V334.463C2032.88 335.055 2033.32 335.556 2033.91 335.643C2051.31 338.237 2064.68 344.817 2074.02 355.382C2083.64 366.071 2088.4 379.37 2088.32 395.279C2088.32 409.531 2084.26 422.292 2076.14 433.561C2068.1 444.747 2057 453.53 2042.83 459.91C2028.74 466.29 2012.58 469.48 1994.35 469.48Z" fill="white"/>
<path d="M1272.63 814.729C1253.49 814.729 1236.96 810.752 1223.04 802.797C1209.21 794.76 1198.56 783.408 1191.1 768.742C1183.64 753.993 1179.91 736.633 1179.91 716.664C1179.91 697.026 1183.64 679.792 1191.1 664.96C1198.64 650.045 1209.16 638.445 1222.67 630.159C1236.18 621.79 1252.04 617.605 1270.27 617.605C1282.04 617.605 1293.14 619.511 1303.58 623.323C1314.11 627.051 1323.39 632.852 1331.42 640.723C1339.54 648.595 1345.92 658.621 1350.56 670.801C1355.2 682.899 1357.52 697.316 1357.52 714.054V714.054C1357.52 721.674 1351.35 727.85 1343.73 727.85H1216.04C1207.76 727.85 1201.04 721.135 1201.04 712.85V712.524C1201.04 704.239 1207.76 697.524 1216.04 697.524H1299.25C1307.59 697.524 1314.64 690.565 1312.19 682.594C1311.32 679.768 1310.19 677.08 1308.8 674.53C1305.16 667.735 1300.06 662.391 1293.52 658.497C1287.05 654.602 1279.51 652.655 1270.89 652.655C1261.7 652.655 1253.62 654.892 1246.66 659.367C1239.7 663.758 1234.27 669.558 1230.38 676.767C1226.56 683.893 1224.62 691.723 1224.53 700.258V726.732C1224.53 737.835 1226.56 747.364 1230.62 755.318C1234.69 763.19 1240.36 769.239 1247.65 773.465C1254.94 777.608 1263.48 779.679 1273.26 779.679C1279.8 779.679 1285.73 778.768 1291.03 776.945C1296.33 775.039 1300.93 772.263 1304.83 768.617C1305.94 767.575 1306.98 766.461 1307.93 765.276C1312.27 759.909 1318.47 755.612 1325.33 756.383L1338.81 757.898C1347.76 758.905 1353.95 767.67 1349.75 775.641C1347.25 780.393 1344.16 784.805 1340.5 788.877C1333.12 797.08 1323.68 803.46 1312.16 808.017C1300.64 812.492 1287.47 814.729 1272.63 814.729Z" fill="white"/>
<path d="M1539.38 620.091C1549.75 620.091 1556.99 630.357 1553.51 640.123L1496.21 801.032C1494.08 807.009 1488.42 811 1482.08 811H1453.52C1447.18 811 1441.52 807.009 1439.39 801.032L1382.09 640.123C1378.61 630.357 1385.85 620.091 1396.22 620.091H1411.87C1418.45 620.091 1424.26 624.375 1426.2 630.658L1466.51 760.955C1466.69 761.52 1467.21 761.906 1467.8 761.906V761.906C1468.39 761.906 1468.91 761.521 1469.09 760.956L1509.52 630.646C1511.47 624.369 1517.27 620.091 1523.85 620.091H1539.38Z" fill="white"/>
<path d="M1669.8 814.729C1650.66 814.729 1634.13 810.752 1620.21 802.797C1606.37 794.76 1595.73 783.408 1588.27 768.742C1580.81 753.993 1577.08 736.633 1577.08 716.664C1577.08 697.026 1580.81 679.792 1588.27 664.96C1595.81 650.045 1606.33 638.445 1619.84 630.159C1633.34 621.79 1649.21 617.605 1667.44 617.605C1679.21 617.605 1690.31 619.511 1700.75 623.323C1711.27 627.051 1720.55 632.852 1728.59 640.723C1736.71 648.595 1743.09 658.621 1747.73 670.801C1752.37 682.899 1754.69 697.316 1754.69 714.054V714.054C1754.69 721.674 1748.52 727.85 1740.9 727.85H1613.21C1604.93 727.85 1598.21 721.135 1598.21 712.85V712.524C1598.21 704.239 1604.93 697.524 1613.21 697.524H1696.42C1704.76 697.524 1711.81 690.565 1709.36 682.594C1708.48 679.768 1707.36 677.08 1705.97 674.53C1702.33 667.735 1697.23 662.391 1690.68 658.497C1684.22 654.602 1676.68 652.655 1668.06 652.655C1658.87 652.655 1650.79 654.892 1643.83 659.367C1636.87 663.758 1631.44 669.558 1627.54 676.767C1623.73 683.893 1621.79 691.723 1621.7 700.258V726.732C1621.7 737.835 1623.73 747.364 1627.79 755.318C1631.85 763.19 1637.53 769.239 1644.82 773.465C1652.11 777.608 1660.65 779.679 1670.42 779.679C1676.97 779.679 1682.89 778.768 1688.2 776.945C1693.5 775.039 1698.1 772.263 1701.99 768.617C1703.11 767.575 1704.14 766.461 1705.1 765.276C1709.44 759.909 1715.64 755.612 1722.5 756.383L1735.98 757.898C1744.93 758.905 1751.12 767.67 1746.92 775.641C1744.41 780.393 1741.33 784.805 1737.67 788.877C1730.29 797.08 1720.84 803.46 1709.33 808.017C1697.81 812.492 1684.63 814.729 1669.8 814.729Z" fill="white"/>
<path d="M1837.75 699.139V796C1837.75 804.284 1831.03 811 1822.75 811H1807.76C1799.47 811 1792.76 804.284 1792.76 796V635.091C1792.76 626.807 1799.47 620.091 1807.76 620.091H1820.76C1829.04 620.091 1835.76 626.807 1835.76 635.091V651.191C1835.76 651.931 1836.36 652.531 1837.1 652.531V652.531C1837.64 652.531 1838.13 652.202 1838.35 651.702C1842.75 641.402 1849.64 633.185 1859 627.051C1868.7 620.754 1880.67 617.605 1894.92 617.605C1908.1 617.605 1919.57 620.423 1929.35 626.057C1939.21 631.691 1946.83 639.853 1952.22 650.542C1957.69 661.231 1960.38 674.199 1960.3 689.445V796C1960.3 804.284 1953.58 811 1945.3 811H1930.31C1922.02 811 1915.31 804.284 1915.31 796V696.405C1915.31 683.645 1911.99 673.66 1905.36 666.451C1898.82 659.242 1889.74 655.638 1878.14 655.638C1870.27 655.638 1863.27 657.378 1857.14 660.858C1851.09 664.255 1846.33 669.186 1842.85 675.649C1839.45 682.112 1837.75 689.942 1837.75 699.139Z" fill="white"/>
<path d="M2086.37 620.091C2094.65 620.091 2101.37 626.807 2101.37 635.091V639.892C2101.37 648.176 2094.65 654.892 2086.37 654.892H2006.62C1998.34 654.892 1991.62 648.176 1991.62 639.892V635.091C1991.62 626.807 1998.34 620.091 2006.62 620.091H2086.37ZM2018.72 589.352C2018.72 581.068 2025.43 574.352 2033.72 574.352H2048.71C2056.99 574.352 2063.71 581.068 2063.71 589.352V753.578C2063.71 759.627 2064.62 764.267 2066.44 767.499C2068.35 770.647 2070.83 772.802 2073.9 773.962C2076.97 775.122 2080.36 775.702 2084.09 775.702C2086.91 775.702 2089.48 775.495 2091.8 775.08V775.08C2094.79 774.564 2097.8 776.449 2098.44 779.42L2102.6 798.698C2103.88 804.654 2100.48 810.549 2094.53 811.87V811.87C2090.14 812.865 2084.75 813.445 2078.37 813.61C2067.11 813.942 2056.96 812.243 2047.92 808.514C2038.89 804.703 2031.72 798.82 2026.42 790.865C2021.2 782.911 2018.63 772.968 2018.72 761.036V589.352Z" fill="white"/>
<path d="M2282.3 655.12C2285.96 663.063 2279.72 671.363 2271.03 672.311L2258.78 673.648C2251.48 674.444 2244.87 669.581 2240.38 663.775C2240.27 663.631 2240.16 663.487 2240.04 663.344C2237.23 659.698 2233.42 656.757 2228.61 654.519C2223.8 652.282 2217.92 651.164 2210.96 651.164C2201.6 651.164 2193.73 653.194 2187.35 657.254C2181.05 661.314 2177.94 666.575 2178.02 673.039C2177.94 678.59 2179.97 683.106 2184.11 686.586C2188.34 690.066 2195.3 692.925 2204.99 695.162L2237.56 702.122C2255.62 706.017 2269.05 712.19 2277.83 720.642C2286.69 729.093 2291.17 740.155 2291.25 753.827C2291.17 765.842 2287.65 776.448 2280.69 785.645C2273.81 794.76 2264.24 801.886 2251.98 807.023C2239.71 812.16 2225.63 814.729 2209.72 814.729C2186.35 814.729 2167.54 809.84 2153.29 800.063C2143.48 793.273 2136.39 784.657 2132.04 774.213C2128.72 766.249 2135.05 758.225 2143.64 757.398L2158.59 755.958C2166.08 755.236 2172.53 760.534 2176.81 766.73C2178.84 769.678 2181.36 772.172 2184.36 774.21C2190.83 778.602 2199.24 780.798 2209.59 780.798C2220.28 780.798 2228.86 778.602 2235.32 774.21C2241.87 769.819 2245.14 764.392 2245.14 757.928C2245.14 752.46 2243.03 747.944 2238.8 744.381C2234.66 740.818 2228.2 738.084 2219.41 736.178L2186.85 729.342C2168.54 725.53 2154.99 719.109 2146.21 710.077C2137.42 700.962 2133.07 689.445 2133.16 675.524C2133.07 663.758 2136.26 653.566 2142.73 644.949C2149.27 636.249 2158.34 629.537 2169.94 624.814C2181.63 620.008 2195.09 617.605 2210.34 617.605C2232.71 617.605 2250.32 622.37 2263.16 631.899C2271.68 638.181 2278.06 645.921 2282.3 655.12Z" fill="white"/>
<defs>
<linearGradient id="paint0_linear_3228_12372" x1="512" y1="0" x2="512" y2="1024" gradientUnits="userSpaceOnUse">
<stop stop-color="#7EAEF9"/>
<stop offset="0.505208" stop-color="#B26DFF"/>
<stop offset="1" stop-color="#E448DF"/>
</linearGradient>
<clipPath id="clip0_3228_12372">
<rect width="1024" height="1024" rx="163" fill="white"/>
</clipPath>
</defs>
</svg>
